<svg width="42" height="42" viewBox="0 0 42 42" fill="none" xmlns="http://www.w3.org/2000/svg">
<g clip-path="url(#clip0_207_209)">
<path fill-rule="evenodd" clip-rule="evenodd" d="M3.07443 38.9235C6.15303 42 11.1006 42 21 42C30.8994 42 35.8491 42 38.9235 38.9235C42 35.8512 42 30.8994 42 21C42 11.1006 42 6.1509 38.9235 3.0744C35.8512 0 30.8994 0 21 0C11.1006 0 6.15093 0 3.07443 3.0744C3.05176e-05 6.153 3.05176e-05 11.1006 3.05176e-05 21C3.05176e-05 30.8994 3.05176e-05 35.8491 3.07443 38.9235ZM35.175 29.4C35.175 29.8177 35.0091 30.2183 34.7137 30.5137C34.4184 30.8091 34.0177 30.975 33.6 30.975H8.40003C7.98232 30.975 7.58171 30.8091 7.28634 30.5137C6.99097 30.2183 6.82503 29.8177 6.82503 29.4C6.82503 28.9823 6.99097 28.5817 7.28634 28.2863C7.58171 27.9909 7.98232 27.825 8.40003 27.825H33.6C34.0177 27.825 34.4184 27.9909 34.7137 28.2863C35.0091 28.5817 35.175 28.9823 35.175 29.4ZM33.6 22.575C34.0177 22.575 34.4184 22.4091 34.7137 22.1137C35.0091 21.8183 35.175 21.4177 35.175 21C35.175 20.5823 35.0091 20.1817 34.7137 19.8863C34.4184 19.5909 34.0177 19.425 33.6 19.425H8.40003C7.98232 19.425 7.58171 19.5909 7.28634 19.8863C6.99097 20.1817 6.82503 20.5823 6.82503 21C6.82503 21.4177 6.99097 21.8183 7.28634 22.1137C7.58171 22.4091 7.98232 22.575 8.40003 22.575H33.6ZM35.175 12.6C35.175 13.0177 35.0091 13.4183 34.7137 13.7137C34.4184 14.0091 34.0177 14.175 33.6 14.175H8.40003C7.98232 14.175 7.58171 14.0091 7.28634 13.7137C6.99097 13.4183 6.82503 13.0177 6.82503 12.6C6.82503 12.1823 6.99097 11.7817 7.28634 11.4863C7.58171 11.1909 7.98232 11.025 8.40003 11.025H33.6C34.0177 11.025 34.4184 11.1909 34.7137 11.4863C35.0091 11.7817 35.175 12.1823 35.175 12.6Z" fill="#1ABC9C"/>
</g>
<defs>
<clipPath id="clip0_207_209">
<rect width="42" height="42" fill="white"/>
</clipPath>
</defs>
</svg>
