<svg width="160" height="48" viewBox="0 0 160 48" fill="none" xmlns="http://www.w3.org/2000/svg">
<path d="M26.7322 46.0576C26.1845 47.9034 23.6359 48.5498 22.0934 47.2342L0.872384 29.1348C0.128741 28.5005 -0.16965 27.5522 0.0944283 26.6624L7.45134 1.87198C7.9991 0.0261811 10.5477 -0.620245 12.0902 0.695369L33.3112 18.7948C34.0548 19.4291 34.3532 20.3774 34.0891 21.2672L26.7322 46.0576Z" fill="#D62A04"/>
<path d="M21.2679 46.0559C21.8157 47.9017 24.3643 48.5481 25.9068 47.2325L47.1277 29.133C47.8714 28.4988 48.1698 27.5505 47.9057 26.6606L40.5488 1.87021C40.001 0.0244172 37.4525 -0.622007 35.9099 0.693607L14.689 18.7931C13.9453 19.4273 13.6469 20.3756 13.911 21.2655L21.2679 46.0559Z" fill="#1ABC9C"/>
<path d="M26.2554 47.0241C26.4752 46.769 26.6455 46.4679 26.747 46.1256L34.12 21.2811C34.3847 20.3893 34.0856 19.4389 33.3404 18.8033L24.0122 10.8473L14.6841 18.8033C13.9389 19.4389 13.6398 20.3893 13.9045 21.2811L21.2774 46.1256C21.379 46.4679 21.5493 46.769 21.7691 47.0241L22.0981 47.3048C22.6527 47.7778 23.3372 47.9978 24.0122 47.9999C24.6873 47.9978 25.3718 47.7778 25.9264 47.3048L26.2554 47.0241Z" fill="#5B1C03"/>
<path d="M60.14 29.8V33.616C60.14 33.736 60.2 33.796 60.32 33.796H61.76C61.88 33.796 61.94 33.736 61.94 33.616V27.136L59.096 25.876C58.88 25.804 58.58 25.684 58.196 25.516C57.812 25.324 57.464 25.048 57.152 24.688C56.864 24.328 56.72 23.836 56.72 23.212V15.004C56.72 13.996 57.032 13.192 57.656 12.592C58.28 11.968 59.096 11.656 60.104 11.656H61.976C62.984 11.656 63.8 11.968 64.424 12.592C65.048 13.192 65.36 13.996 65.36 15.004V20.332L61.94 20.044V15.184C61.94 15.064 61.88 15.004 61.76 15.004H60.32C60.2 15.004 60.14 15.064 60.14 15.184V22.708L62.984 23.968C63.2 24.064 63.5 24.196 63.884 24.364C64.268 24.532 64.604 24.796 64.892 25.156C65.204 25.516 65.36 26.008 65.36 26.632V33.796C65.36 34.804 65.048 35.62 64.424 36.244C63.8 36.844 62.984 37.144 61.976 37.144H60.104C59.096 37.144 58.28 36.844 57.656 36.244C57.032 35.62 56.72 34.804 56.72 33.796V29.8H60.14ZM67.1698 33.796V22.204C67.1698 21.196 67.4818 20.392 68.1058 19.792C68.7298 19.168 69.5458 18.856 70.5538 18.856H72.7858C73.7938 18.856 74.6098 19.168 75.2338 19.792C75.8578 20.392 76.1698 21.196 76.1698 22.204V26.632H72.7498V22.384C72.7498 22.264 72.6898 22.204 72.5698 22.204H70.7698C70.6498 22.204 70.5898 22.264 70.5898 22.384V26.632H76.1698V29.98H70.5898V33.616C70.5898 33.736 70.6498 33.796 70.7698 33.796H72.5698C72.6898 33.796 72.7498 33.748 72.7498 33.652V31.672H76.1698V33.796C76.1698 34.804 75.8578 35.62 75.2338 36.244C74.6098 36.844 73.7938 37.144 72.7858 37.144H70.5538C69.5458 37.144 68.7298 36.844 68.1058 36.244C67.4818 35.62 67.1698 34.804 67.1698 33.796ZM82.071 19V20.584L83.043 19H85.455V22.492H82.071V37H78.651V22.348H77.787L78.147 19H82.071ZM90.3252 14.212L90.6852 17.56H87.2652V14.212H90.3252ZM90.6852 19V37H87.2652V22.348H86.7252L87.0852 19H90.6852ZM95.9327 37C94.8287 37 93.9407 36.688 93.2687 36.064C92.6207 35.416 92.2967 34.612 92.2967 33.652V22.348C92.2967 21.364 92.6207 20.56 93.2687 19.936C93.9407 19.312 94.8287 19 95.9327 19H96.0767C96.7247 19 97.3007 19.156 97.8047 19.468V19H101.225V33.652H101.729L102.089 37H97.8047V35.596L96.9047 37H95.9327ZM95.8967 22.348C95.7767 22.348 95.7167 22.408 95.7167 22.528V33.472C95.7167 33.592 95.7767 33.652 95.8967 33.652H97.8047V22.348H95.8967ZM107.124 11.8L107.16 33.652H108.06L108.42 37H103.74L103.704 15.148H102.984L103.344 11.8H107.124Z" fill="#2C3E50"/>
<path d="M118.989 35.092L118.773 37H111.573V13.708H110.925L111.285 11.8H118.989L118.773 13.708H113.481V23.428H118.989L118.773 25.336H113.481V35.092H118.989ZM120.178 19H121.402V13.708C121.402 13.132 121.57 12.676 121.906 12.34C122.266 11.98 122.734 11.8 123.31 11.8H125.074V13.708H123.31V19H125.074L124.786 20.908H123.31V37H121.402V20.908H119.89L120.178 19ZM126.269 19H127.493V13.708C127.493 13.132 127.661 12.676 127.997 12.34C128.357 11.98 128.825 11.8 129.401 11.8H131.165V13.708H129.401V19H131.165L130.877 20.908H129.401V37H127.493V20.908H125.981L126.269 19ZM132.26 33.4V22.6C132.26 20.104 133.52 18.856 136.04 18.856H136.436C138.956 18.856 140.216 20.104 140.216 22.6V29.512H134.168V33.4C134.168 34.144 134.288 34.636 134.528 34.876C134.792 35.116 135.296 35.236 136.04 35.236H136.436C137.204 35.236 137.708 35.116 137.948 34.876C138.188 34.636 138.308 34.144 138.308 33.4V31.672H140.216V33.4C140.216 35.896 138.956 37.144 136.436 37.144H136.04C133.52 37.144 132.26 35.896 132.26 33.4ZM138.308 22.6C138.308 21.856 138.188 21.364 137.948 21.124C137.708 20.884 137.204 20.764 136.436 20.764H136.04C135.296 20.764 134.792 20.884 134.528 21.124C134.288 21.364 134.168 21.856 134.168 22.6V27.604H138.308V22.6ZM142.006 33.4V22.6C142.006 20.104 143.266 18.856 145.786 18.856H146.182C148.702 18.856 149.962 20.104 149.962 22.6V26.884L148.054 26.668V22.6C148.054 21.856 147.934 21.364 147.694 21.124C147.454 20.884 146.95 20.764 146.182 20.764H145.786C145.042 20.764 144.538 20.884 144.274 21.124C144.034 21.364 143.914 21.856 143.914 22.6V33.4C143.914 34.144 144.034 34.636 144.274 34.876C144.538 35.116 145.042 35.236 145.786 35.236H146.182C146.95 35.236 147.454 35.116 147.694 34.876C147.934 34.636 148.054 34.144 148.054 33.4V29.476H149.962V33.4C149.962 35.896 148.702 37.144 146.182 37.144H145.786C143.266 37.144 142.006 35.896 142.006 33.4ZM156.361 35.092V37H154.633C154.057 37 153.589 36.832 153.229 36.496C152.893 36.136 152.725 35.668 152.725 35.092V20.908H151.213L151.501 19H152.725V13.708H152.077L152.365 11.8H154.633V19H156.361L156.073 20.908H154.633V35.092H156.361Z" fill="#85909B"/>
</svg>
